<?xml version="1.0" encoding="utf-8"?>
<!-- Svg Vector Icons : http://www.onlinewebfonts.com/icon -->
<!DOCTYPE svg PUBLIC "-//W3C//DTD SVG 1.1//EN" "http://www.w3.org/Graphics/SVG/1.1/DTD/svg11.dtd">
<svg version="1.1" xmlns="http://www.w3.org/2000/svg" xmlns:xlink="http://www.w3.org/1999/xlink" x="0px" y="0px" viewBox="0 0 256 256" enable-background="new 0 0 256 256" xml:space="preserve">
<metadata> Svg Vector Icons : http://www.onlinewebfonts.com/icon </metadata>
<g><g><g><path fill="#000000" d="M121.4,11c-7.5,2.5-12.7,9.2-13.6,17.5l-0.3,2.7H99c-5.6,0-8.9,0.2-9.6,0.6c-2.4,1.1-2.5,2.1-2.5,14.7V58l1.6,1.8l1.6,1.7l37.2,0.1c33.3,0.1,37.4,0,38.8-0.6c2.8-1.3,3-2.4,3-14.9c0-11.8-0.2-13.2-2.3-14.3c-0.6-0.3-4.5-0.5-9.6-0.5h-8.7l-0.5-3.4c-0.9-6-3.5-10.5-8.1-14C134.6,10,127.5,9,121.4,11z M130.6,21.8c2.4,1.2,3.7,3.3,3.7,5.7c0,4.1-2.6,6.6-6.7,6.6c-1.8,0-2.4-0.2-3.9-1.8c-1.9-2-2.5-3.5-2.1-5.8C122.4,22.3,127.1,19.9,130.6,21.8z"/><path fill="#000000" d="M54.9,39.5c-5.4,1.7-9.3,5.7-11,11.1C43,53.4,43,54.7,43,142.1c0,79.7,0.1,89,0.7,91.2c1.5,5,5.1,9.2,9.8,11.4l2.6,1.2h71.8h71.8l3.1-1.5c3.9-1.8,7-4.9,8.8-8.8l1.5-3.1v-90.4V51.7l-1.3-2.9c-1.6-3.5-5.2-7.1-8.9-8.8c-2.5-1.2-3.1-1.2-10.8-1.4l-8.2-0.2v7.4v7.4l6.7,0.1c6,0.1,6.8,0.2,7.4,1.1c0.6,0.7,0.6,13.2,0.6,88c-0.1,82.9-0.2,87.1-1,87.9c-0.8,0.8-4.2,0.8-69.2,0.9l-68.3,0l-1.1-1.1l-1.1-1.1v-87c0-86.4,0-87,0.9-87.9c0.8-0.8,1.5-0.9,7.2-0.9h6.2V46v-7.4l-7.2,0C59.1,38.6,57,38.8,54.9,39.5z"/><path fill="#000000" d="M102.7,80.2c-5.5,2.3-15.2,10.4-18,15l-0.8,1.4l-2.7-2.3c-1.5-1.2-2.9-2.3-3-2.3c-0.9,0-2.4,1.6-2.4,2.5c0,1.2,6.3,8.9,7.8,9.6c1.8,0.8,3-0.1,6.4-5.4c4-6.2,8-10.7,13-14.6c2.8-2.2,3.7-3.2,3.6-3.9C106.4,79.1,105.5,79.1,102.7,80.2z"/><path fill="#000000" d="M66.9,82.9c-0.8,0.4-0.8,1.7-0.8,15.4c0,13.8,0,14.9,0.8,15.6c0.7,0.7,2.5,0.8,15,0.8h14.2l1.1-1.2c1.2-1.1,1.2-1.2,1.2-10.2c0-10.4,0.1-10.2-3.7-4.5c-2.2,3.3-2.3,3.6-2.3,6.6v3.2H82.2H72.1V98.6V88.4h6.5H85l3-3l3.1-3H79.4C72.3,82.4,67.3,82.7,66.9,82.9z"/><path fill="#000000" d="M115.9,84.3c-0.5,0.5-0.9,1.4-0.9,2.1c0,0.6,0.4,1.6,0.9,2.1c0.9,0.9,1.5,0.9,32.4,0.9c35.1,0,33.5,0.1,33.5-3c0-3.1,1.5-3-33.5-3C117.4,83.3,116.8,83.3,115.9,84.3z"/><path fill="#000000" d="M115.9,97.7c-1.2,1.2-1.2,3.3-0.1,4.3c0.8,0.7,3,0.8,21.9,0.8c20.5,0,21.1,0,22-0.9c0.5-0.5,0.9-1.4,0.9-2.1c0-0.6-0.4-1.6-0.9-2.1c-0.9-0.9-1.5-0.9-21.9-0.9C117.4,96.7,116.8,96.8,115.9,97.7z"/><path fill="#000000" d="M67.9,129.4c-1.8,0.6-1.8,1.3-1.8,16.1c0,12.5,0.1,14.5,0.7,15.1c0.6,0.6,2.7,0.7,15.4,0.7c14.7,0,14.7,0,15.4-1c0.6-0.9,0.7-3.1,0.7-15v-14l-1.2-1.1l-1.1-1.2l-13.8,0C74.8,129.1,68.3,129.2,67.9,129.4z M92.4,145.1v10.1l-1.5,0.3c-1.9,0.3-16.4,0.3-17.8,0c-1.1-0.2-1.1-0.2-1.1-10.3V135h10.2h10.2L92.4,145.1L92.4,145.1z"/><path fill="#000000" d="M115.7,131.7c-1.1,1.2-1,3,0.2,4.1c0.9,0.8,2.2,0.9,31.3,1c16.7,0.1,30.9,0,31.7-0.1c1.9-0.4,2.9-1.3,2.9-3c0-2.9,1.8-2.8-33.4-2.8C118.1,130.9,116.4,130.9,115.7,131.7z"/><path fill="#000000" d="M115.7,145.1c-0.8,0.9-1,2.7-0.4,3.6c1,1.5,2.4,1.6,22.6,1.6c19.8,0,20.3,0,21.5-1c1.4-1.1,1.6-3.1,0.4-4.2c-0.8-0.7-3-0.8-22.1-0.8C117.7,144.3,116.4,144.3,115.7,145.1z"/><path fill="#000000" d="M66.8,176.9c-0.7,0.7-0.8,2.5-0.8,15.5c0,14.5,0,14.6,1,15.3c0.9,0.6,3.1,0.7,15,0.7h14l1.1-1.2l1.2-1.1V192c0-13.5,0-14.1-0.9-15c-0.9-0.9-1.5-0.9-15.4-0.9C68.6,176.1,67.5,176.1,66.8,176.9z M92.4,192.2v10.2H82.2H72.1v-10.2v-10.1h10.2h10.2V192.2z"/><path fill="#000000" d="M115.9,178.4c-0.5,0.5-0.9,1.4-0.9,2.1s0.4,1.6,0.9,2.1c0.9,0.9,1.5,0.9,32.4,0.9c35.1,0,33.5,0.1,33.5-3c0-3.1,1.5-3-33.5-3C117.4,177.5,116.8,177.5,115.9,178.4z"/><path fill="#000000" d="M115.9,191.8c-1.2,1.2-1.2,3.5,0.1,4.3c0.9,0.6,3.8,0.7,21.9,0.7c20.3,0,20.9,0,21.8-0.9c0.5-0.5,0.9-1.4,0.9-2.1s-0.4-1.6-0.9-2.1c-0.9-0.9-1.5-0.9-21.9-0.9C117.4,190.9,116.8,190.9,115.9,191.8z"/></g></g></g>
</svg>